# xmcd
#
# Track frame offsets:
#	150
#	15415
#	26987
#	40522
#	54912
#	69127
#	81032
#	96712
#	108835
#	120460
#	133047
#	148380
#
# Disc length: 2155 seconds
#
# Revision: 0
# Processed by: cddbd v1.5.2PL0 Copyright (c) Steve Scherf et al.
# Submitted via: EasyCDDAExtractor 16.0.6.1
#
DISCID=9b08690c
DTITLE=Μαρινέλλα - Σταλιά-σταλιά-1969, Μαρινέλλα
DYEAR=2007
DGENRE=Λαϊκή
TTITLE0=Σταλιά-σταλιά [Γιώργος Ζαμπέτας-Διονύσιος Τζεφρώνης]
TTITLE1=Πίσω από τις καλαμιές [Γιώργος Κατσαρός-Πυθαγόρας]
TTITLE2=Τώρα που ήρθε η στιγμή [Νάκης Πετρίδης-Σέβη Τηλιακού]
TTITLE3=Οι άντρες δεν κλαίνε [Γιώργος Κατσαρός-Πυθαγόρας]
TTITLE4=Ποιος είν' αυτός [Γιώργος Ζαμπέτας-Πυθαγόρας]
TTITLE5=Άμα δείτε το φεγγάρι [Μίμης Πλέσσας-Λευτέρης Παπαδόπουλος]
TTITLE6=Άνοιξε πέτρα [Μίμης Πλέσσας-Λευτέρης Παπαδόπουλος]
TTITLE7=Πήρα τους δρόμους [Γιώργος Ζαμπέτας-Δημήτρης Χριστοδούλου]
TTITLE8=Ο Κολωνιακιώτης [Νίκος Πετρίδης-Σέβη Τηλιακού]
TTITLE9=Κλαίω κάθε Κυριακή [Γιώργος Κατσαρός-Πυθαγόρας]
TTITLE10=Έχω στην πόρτα τα κλειδιά [Ευάγγελος Πιτσιλαδής-Λευτέρης Παπαδόπουλος
TTITLE10=]
TTITLE11=Γλυκοχαράζει, ξύπνησε [Γιώργος Ζαμπέτας]
EXTD=
EXTT0=
EXTT1=
EXTT2=
EXTT3=
EXTT4=
EXTT5=
EXTT6=
EXTT7=
EXTT8=
EXTT9=
EXTT10=
EXTT11=
PLAYORDER=
